<?xml version="1.0" encoding="iso-8859-1"?>
<!-- Uploaded to: SVG Repo, www.svgrepo.com, Generator: SVG Repo Mixer Tools -->
<svg fill="#632e61" height="40px" width="40px" version="1.1" id="Layer_1" xmlns="http://www.w3.org/2000/svg" xmlns:xlink="http://www.w3.org/1999/xlink" 
	 viewBox="0 0 511.999 511.999" xml:space="preserve">
<g>
	<g>
		<path d="M496.366,175.482L334.971,63.636c-4.018-2.884-8.148-4.347-12.276-4.347c-9.073,0-13.951,6.923-14.477,7.712l-0.091,0.14
			c-0.185,0.291-18.842,29.041-52.127,29.041c-21.282,0-40.716-10.789-52.014-28.865c-2.187-3.76-7.181-8.055-14.273-8.055
			c-4.027,0-8.187,1.399-12.369,4.159L15.632,175.482c-13.863,9.607-19.259,27.288-13.122,43
			c0.839,2.146,5.701,14.065,16.457,31.107v61.663c0,4.199,3.403,7.603,7.603,7.603c4.2,0,7.603-3.404,7.603-7.603v-39.895
			c9.272,14.126,22.41,26.076,23.042,26.733v47.303c0,4.199,3.403,7.603,7.603,7.603s7.603-3.404,7.603-7.603v-32.47
			c7.352,6.716,15.039,13.135,23.042,19.239v40.275c0,4.199,3.403,7.603,7.603,7.603s7.603-3.404,7.603-7.603V343.12
			c6.519,4.439,21.96,13.819,23.042,14.443v35.836c0,4.199,3.403,7.603,7.603,7.603s7.603-3.404,7.603-7.603v-27.409
			c6.717,3.579,14.55,7.568,23.042,11.552v35.805c0,4.199,3.403,7.603,7.603,7.603s7.603-3.404,7.603-7.603v-29.024
			c7.495,3.162,15.258,6.156,23.042,8.754v39.206c0,4.199,3.403,7.603,7.603,7.603s7.603-3.404,7.603-7.603v-34.685
			c7.932,2.039,15.703,3.488,23.042,4.106v43.432c0,4.199,3.403,7.603,7.603,7.603c4.2,0,7.603-3.404,7.603-7.603v-43.442
			c7.321-0.625,15.072-2.076,22.979-4.112v34.543c0,4.199,3.403,7.603,7.603,7.603s7.603-3.404,7.603-7.603v-39.068
			c7.784-2.6,15.548-5.596,23.042-8.759v28.893c0,4.199,3.403,7.603,7.603,7.603s7.603-3.404,7.603-7.603v-35.677
			c8.495-3.986,16.329-7.976,23.042-11.555v27.285c0,4.199,3.403,7.603,7.603,7.603s7.603-3.404,7.603-7.603v-35.716
			c1.058-0.61,16.504-9.994,23.042-14.449v29.202c0,4.199,3.403,7.603,7.603,7.603s7.603-3.404,7.603-7.603v-40.165
			c8.003-6.107,15.69-12.529,23.042-19.248v32.369c0,4.199,3.403,7.603,7.603,7.603s7.603-3.404,7.603-7.603v-47.21
			c0.61-0.635,15.397-14.23,23.042-26.748v39.818c0,4.199,3.403,7.603,7.603,7.603c4.2,0,7.603-3.404,7.603-7.603v-61.604
			c10.713-16.99,15.556-28.866,16.395-31.01C515.625,202.77,510.23,185.088,496.366,175.482z M185.788,76.067
			c4.317-3.308,5.214-0.835,5.214-0.835c14.081,22.64,38.378,36.156,64.998,36.156c40.136,0,64.806-35.846,64.816-35.856
			c0,0,1.756-2.435,5.32,0.481l8.559,5.932c-16.565,27.701-46.148,44.651-78.695,44.651c-32.546,0-62.129-16.948-78.694-44.649
			L185.788,76.067z M98.648,136.454c9.604,11.808,18.974,21.725,28.505,30.175c19.996,17.726,38.841,32.72,56.013,44.563
			c1.319,0.908,7.107,3.326,10.577-1.942c2.309-3.507,1.515-8.191-1.941-10.576c-16.667-11.496-35.024-26.107-54.559-43.425
			c-8.668-7.683-17.238-16.724-26.055-27.484l14.773-10.237c5.107,5.869,10.179,11.03,15.387,15.647
			c31.028,27.506,87.165,73.651,114.532,73.651c17.516,0,49.53-19.482,95.151-57.905c3.213-2.705,3.623-7.501,0.917-10.714
			c-2.705-3.211-7.502-3.623-10.713-0.917c-58.223,49.035-79.089,54.329-85.356,54.329c-15.841,0-55.862-26.754-104.443-69.824
			c-4.34-3.846-8.597-8.141-12.892-12.987l26.25-18.191c19.399,31.775,53.6,51.184,91.208,51.184
			c37.609,0,71.81-19.41,91.208-51.185l25.589,17.733c-4.143,4.587-13.908,13.7-13.908,13.7c-3.147,2.781-3.471,7.61-0.662,10.733
			c4.219,4.69,9.286,1.94,10.733,0.662c0,0,11.474-10.763,16.436-16.364l15.643,10.84c-9.042,11.257-17.764,20.58-26.523,28.344
			c-50.954,45.171-94.195,71.078-118.636,71.078c-11.311,0-26.657-5.658-45.611-16.816c-3.617-2.132-8.279-0.925-10.409,2.695
			c-2.131,3.619-0.925,8.279,2.695,10.409c21.623,12.731,39.066,18.919,53.326,18.919c38.483,0,97.168-46.931,128.725-74.906
			c9.624-8.532,19.142-18.729,28.967-31.039l12.276,8.508l-10.231,40.721l-44.986,19.925c-1.534,0.679-2.799,1.846-3.6,3.318
			l-23.455,43.114l-48.527,6.313c-1.476,0.192-2.863,0.813-3.99,1.786l-35.056,30.286l-35.056-30.286
			c-1.126-0.973-2.513-1.595-3.99-1.786l-48.527-6.313l-23.455-43.114c-0.801-1.473-2.066-2.64-3.6-3.318l-44.986-19.925
			l-10.248-40.71L98.648,136.454z M72.761,154.392l9.787,38.752c0.572,2.267,2.155,4.144,4.292,5.09l46.009,20.378l24.071,44.248
			c1.163,2.14,3.282,3.592,5.697,3.907l50.11,6.519l38.3,33.089c1.438,1.242,3.207,1.85,4.968,1.85c1.774,0,3.535-0.627,4.944-1.836
			c0.01-0.008,0.02-0.005,0.029-0.013l38.3-33.089l50.11-6.519c2.416-0.314,4.535-1.767,5.697-3.907l24.071-44.248l46.009-20.378
			c2.137-0.947,3.721-2.824,4.292-5.09l9.784-38.755l16.019,11.101c-7.541,14.346-19.038,35.397-33.281,52.461
			c-18.923,22.669-41.012,42.481-65.653,58.885c-39.607,26.369-80.861,44.785-100.32,44.785c-19.459,0-60.714-18.417-100.321-44.785
			c-24.641-16.404-46.729-36.216-65.652-58.885c-14.24-17.059-25.739-38.114-33.281-52.461L72.761,154.392z M495.326,212.944
			c-1.377,3.523-14.47,35.489-49.693,72.726c-20.774,21.961-45.032,41.16-72.097,57.062C337.251,364.05,287.319,386.83,256,386.83
			s-81.251-22.779-117.537-44.098c-27.065-15.902-51.322-35.101-72.096-57.062c-35.223-37.237-48.315-69.204-49.692-72.724
			c-2.466-6.315-1.719-13.176,1.641-18.652c8.928,15.287,22.296,35.648,36.689,52.892c21.735,26.038,47.101,48.789,75.392,67.626
			c18.476,12.299,82.135,52.43,125.602,52.43c29.181,0,67.677-18.25,94.833-33.56c3.658-2.062,4.951-6.699,2.889-10.357
			c-2.061-3.658-6.698-4.951-10.358-2.889c-36.143,20.377-67.171,31.599-87.365,31.599c-31.149,0-80.953-25.767-117.175-49.883
			c-27.074-18.025-51.347-39.797-72.145-64.712c-14.646-17.545-28.198-38.481-36.722-53.386l14.196-9.838
			c7.841,14.842,19.528,35.903,34.199,53.479c19.861,23.791,43.042,44.584,68.899,61.799
			c43.191,28.755,85.877,47.334,108.748,47.334c22.872,0,65.558-18.579,108.747-47.333c25.858-17.215,49.039-38.007,68.9-61.799
			c14.675-17.58,26.36-38.637,34.199-53.479l14.196,9.838c-8.524,14.904-22.076,35.841-36.722,53.386
			c-15.812,18.941-33.755,36.181-53.33,51.237c-3.328,2.56-3.959,7.339-1.392,10.663c3.781,4.897,9.281,2.453,10.663,1.391
			c20.458-15.735,39.209-33.751,55.734-53.545c14.394-17.243,27.762-37.606,36.689-52.892
			C497.045,199.771,497.792,206.631,495.326,212.944z"/>
	</g>
</g>
<g>
	<g>
		<path d="M383.742,304.307c-2.295-3.493-6.982-4.481-10.49-2.206l-9.722,6.3c-3.509,2.274-4.546,6.968-2.272,10.476
			c3.215,4.959,9.203,3.13,10.463,2.335c3.334-2.104,6.657-4.257,9.879-6.402C385.081,312.493,386.038,307.802,383.742,304.307z"/>
	</g>
</g>
</svg>